<svg xmlns="http://www.w3.org/2000/svg" viewBox="0 0 1200 800" fill="none">
  <style>
    .line { stroke: #1a1714; stroke-width: 2.2; stroke-linecap: round; stroke-linejoin: round; fill: none; }
    .fill-red { fill: #d4574a; }
    .fill-green { fill: #5a9e6f; }
    .fill-yellow { fill: #e8b84a; }
    .fill-cream { fill: #f0dcc0; }
    .fill-brown { fill: #8b6040; }
    .fill-pink { fill: #e88a9a; }
    .fill-orange { fill: #e8944a; }
  </style>

  <!-- TOMATO — top left -->
  <g transform="translate(65, 55) rotate(-12)">
    <circle cx="30" cy="32" r="26" class="fill-red line"/>
    <path d="M22 10 Q30 2 38 10" class="line" stroke="#5a9e6f" stroke-width="2.5"/>
    <path d="M18 8 Q14 -2 18 -4" class="line" stroke="#5a9e6f" stroke-width="2"/>
    <path d="M42 8 Q46 -2 42 -4" class="line" stroke="#5a9e6f" stroke-width="2"/>
    <path d="M20 26 Q30 22 40 26" class="line" stroke-width="1.5" opacity="0.3"/>
  </g>

  <!-- MEAT SKEWER — far right, upper -->
  <g transform="translate(1100, 120) rotate(-30)">
    <line x1="0" y1="0" x2="8" y2="140" class="line" stroke="#8b6040" stroke-width="3"/>
    <rect x="-8" y="15" width="24" height="20" rx="4" class="fill-brown line" transform="rotate(5, 4, 25)"/>
    <rect x="-6" y="42" width="22" height="18" rx="4" class="fill-brown line" transform="rotate(-3, 5, 51)"/>
    <rect x="-7" y="68" width="23" height="20" rx="4" class="fill-brown line" transform="rotate(4, 5, 78)"/>
    <rect x="-5" y="96" width="20" height="17" rx="4" class="fill-brown line" transform="rotate(-2, 5, 104)"/>
  </g>

  <!-- HOT PEPPER — left, lower third -->
  <g transform="translate(30, 440) rotate(18)">
    <path d="M5 40 Q0 20 8 8 Q14 0 18 8 Q22 20 16 40 Q12 50 5 40Z" class="fill-red line"/>
    <path d="M10 8 Q8 -2 12 -6 Q16 -2 14 4" class="line" stroke="#5a9e6f" stroke-width="2"/>
  </g>

  <!-- ONION RINGS — top, offset right -->
  <g transform="translate(880, 25) rotate(12)">
    <ellipse cx="25" cy="20" rx="22" ry="16" class="fill-cream line"/>
    <ellipse cx="25" cy="20" rx="14" ry="10" class="line" stroke-width="1.8"/>
    <ellipse cx="25" cy="20" rx="7" ry="5" class="line" stroke-width="1.5" opacity="0.5"/>
  </g>

  <!-- PARSLEY — top left-center -->
  <g transform="translate(230, 18) rotate(22)">
    <path d="M0 20 Q8 0 20 4 Q32 -2 28 14 Q36 10 32 22 Q24 30 16 26 Q8 32 0 20Z" class="fill-green line"/>
    <path d="M14 24 L16 8" class="line" stroke-width="1.5" stroke="#5a9e6f"/>
  </g>

  <!-- TOMATO SLICE — right middle -->
  <g transform="translate(1120, 480) rotate(-22)">
    <circle cx="22" cy="22" r="20" class="fill-red line"/>
    <circle cx="22" cy="22" r="14" class="line" stroke-width="1.2" opacity="0.3"/>
    <path d="M14 14 L22 22 L30 14" class="line" stroke-width="1.2" opacity="0.3"/>
    <path d="M14 30 L22 22 L30 30" class="line" stroke-width="1.2" opacity="0.3"/>
  </g>

  <!-- LETTUCE LEAF — bottom right -->
  <g transform="translate(980, 700) rotate(-18)">
    <path d="M0 30 Q10 0 30 5 Q50 -5 55 20 Q60 35 40 40 Q20 50 0 30Z" class="fill-green line"/>
    <path d="M10 28 Q25 15 45 22" class="line" stroke-width="1.3" opacity="0.4"/>
    <path d="M15 35 Q30 25 42 30" class="line" stroke-width="1.2" opacity="0.3"/>
  </g>

  <!-- CHEDDAR SLICE 1 — top far right -->
  <g transform="translate(1060, 30) rotate(6)">
    <rect x="0" y="0" width="50" height="12" rx="2" class="fill-orange line"/>
    <rect x="0" y="0" width="50" height="12" rx="2" class="line" stroke-width="1.8"/>
    <line x1="8" y1="3" x2="8" y2="9" class="line" stroke-width="1" opacity="0.25"/>
    <line x1="22" y1="3" x2="22" y2="9" class="line" stroke-width="1" opacity="0.25"/>
    <line x1="36" y1="3" x2="36" y2="9" class="line" stroke-width="1" opacity="0.25"/>
  </g>

  <!-- SMALL HERB — scattered top -->
  <g transform="translate(560, 8) rotate(-8)">
    <path d="M8 22 L10 5" class="line" stroke="#5a9e6f" stroke-width="2"/>
    <path d="M10 12 Q16 6 14 14" class="line" stroke="#5a9e6f" stroke-width="1.8"/>
    <path d="M10 8 Q4 2 6 10" class="line" stroke="#5a9e6f" stroke-width="1.8"/>
  </g>

  <!-- MEAT CHUNK — bottom left area -->
  <g transform="translate(160, 710) rotate(14)">
    <path d="M5 25 Q0 10 10 3 Q22 -2 30 8 Q36 18 28 28 Q18 34 5 25Z" class="fill-brown line"/>
    <path d="M12 10 Q18 14 24 10" class="line" stroke-width="1.3" opacity="0.35"/>
  </g>

  <!-- SMALL ONION — far bottom middle -->
  <g transform="translate(620, 740) rotate(-6)">
    <path d="M8 28 Q0 15 10 5 Q20 -2 28 5 Q38 15 30 28 Q20 35 8 28Z" class="fill-pink line"/>
    <path d="M19 5 Q18 -2 20 -6" class="line" stroke="#5a9e6f" stroke-width="1.8"/>
    <path d="M12 18 Q19 14 26 18" class="line" stroke-width="1.2" opacity="0.3"/>
  </g>

  <!-- SMALL LEAF — top scattered -->
  <g transform="translate(740, 15) rotate(32)">
    <path d="M0 12 Q6 0 14 4 Q18 12 10 16 Q4 18 0 12Z" class="fill-green line"/>
    <path d="M4 12 L10 6" class="line" stroke-width="1.2" stroke="#5a9e6f"/>
  </g>

  <!-- HOT PEPPER 2 — bottom right scattered -->
  <g transform="translate(1100, 700) rotate(-40)">
    <path d="M5 35 Q0 18 7 7 Q12 0 16 7 Q20 18 14 35 Q10 42 5 35Z" class="fill-red line"/>
    <path d="M9 7 Q7 -1 10 -4 Q14 -1 12 4" class="line" stroke="#5a9e6f" stroke-width="1.8"/>
  </g>

  <!-- CHEDDAR SLICE 2 — left middle-bottom -->
  <g transform="translate(15, 600) rotate(-14)">
    <rect x="0" y="0" width="45" height="11" rx="2" class="fill-orange line"/>
    <line x1="10" y1="3" x2="10" y2="8" class="line" stroke-width="1" opacity="0.25"/>
    <line x1="24" y1="3" x2="24" y2="8" class="line" stroke-width="1" opacity="0.25"/>
    <line x1="38" y1="3" x2="38" y2="8" class="line" stroke-width="1" opacity="0.25"/>
  </g>

  <!-- TOMATO small — bottom center-left -->
  <g transform="translate(350, 750) rotate(8)">
    <circle cx="16" cy="16" r="14" class="fill-red line"/>
    <path d="M12 6 Q16 2 20 6" class="line" stroke="#5a9e6f" stroke-width="1.8"/>
  </g>

  <!-- LETTUCE small — left upper -->
  <g transform="translate(20, 200) rotate(25)">
    <path d="M0 18 Q6 0 18 3 Q28 -2 30 12 Q22 22 10 20Z" class="fill-green line"/>
    <path d="M6 14 Q14 8 24 12" class="line" stroke-width="1.1" opacity="0.35"/>
  </g>

  <!-- ONION RING small — scattered right -->
  <g transform="translate(1130, 340) rotate(-10)">
    <ellipse cx="16" cy="14" rx="15" ry="11" class="fill-cream line"/>
    <ellipse cx="16" cy="14" rx="9" ry="7" class="line" stroke-width="1.5"/>
  </g>

  <!-- MEAT CHUNK 2 — top area scattered -->
  <g transform="translate(680, 750) rotate(-20)">
    <path d="M4 20 Q0 8 8 2 Q18 -2 24 6 Q28 14 22 22 Q14 28 4 20Z" class="fill-brown line"/>
    <path d="M10 8 Q15 11 20 8" class="line" stroke-width="1.2" opacity="0.3"/>
  </g>

  <!-- SMALL GREEN PEPPER — bottom far left -->
  <g transform="translate(90, 750) rotate(30)">
    <path d="M4 0 Q0 10 2 22 Q4 28 8 22 Q10 10 6 0Z" class="fill-green line"/>
    <path d="M4 0 Q5 -4 6 0" class="line" stroke-width="1.5"/>
  </g>

  <!-- CHEDDAR melty — right far bottom -->
  <g transform="translate(850, 750) rotate(4)">
    <path d="M0 8 Q5 0 20 2 Q40 0 45 8 Q42 16 38 14 Q30 18 20 14 Q10 18 5 14 Q0 16 0 8Z" class="fill-orange line"/>
  </g>

  <!-- HERB sprig — left middle -->
  <g transform="translate(8, 320) rotate(-15)">
    <path d="M6 30 L8 5" class="line" stroke="#5a9e6f" stroke-width="2"/>
    <path d="M8 18 Q14 12 12 20" class="line" stroke="#5a9e6f" stroke-width="1.6"/>
    <path d="M8 12 Q2 6 4 14" class="line" stroke="#5a9e6f" stroke-width="1.6"/>
    <path d="M8 6 Q13 1 11 8" class="line" stroke="#5a9e6f" stroke-width="1.6"/>
  </g>

</svg>
